<svg width="32" height="32" viewBox="0 0 32 32" fill="none" xmlns="http://www.w3.org/2000/svg">
  <!-- Fondo beige claro -->
  <rect width="32" height="32" fill="#FFF6F1" rx="4"/>
  
  <!-- Logo Inspira en naranja -->
  <!-- Dos círculos superiores (ojos de la "i") -->
  <circle cx="10" cy="8" r="2.5" fill="#D97400"/>
  <circle cx="22" cy="8" r="2.5" fill="#D97400"/>
  
  <!-- Forma de arco inferior (representa personas/conexión) -->
  <path d="M8 14 C8 14 10 12 12 12 C14 12 16 14 16 16 L16 24 C16 24 14 26 12 26 C10 26 8 24 8 24 Z" fill="#D97400"/>
  <path d="M16 16 C16 14 18 12 20 12 C22 12 24 14 24 14 L24 24 C24 24 22 26 20 26 C18 26 16 24 16 24 Z" fill="#D97400"/>
  
  <!-- Conexión central -->
  <ellipse cx="16" cy="20" rx="2" ry="6" fill="#FFF6F1"/>
</svg>